<svg width="340" height="221" viewBox="0 0 340 221" fill="none" xmlns="http://www.w3.org/2000/svg">
<g clip-path="url(#clip0_143_13927)">
<circle cx="61" cy="161" r="59.5" stroke="#FEE42A"/>
<path d="M246.61 150.209L263.524 23.9216L365.005 101.637L246.61 150.209Z" stroke="#F83C33"/>
<line x1="214.486" y1="207.884" x2="225.486" y2="253.884" stroke="black"/>
</g>
<path d="M161.088 207.008C159.216 207.008 157.872 206.624 157.056 205.856C156.24 205.088 155.832 204.272 155.832 203.408C155.832 202.592 156.096 201.896 156.624 201.32C157.2 200.696 157.944 200.384 158.856 200.384C159.432 200.384 159.888 200.528 160.224 200.816C160.608 201.104 160.968 201.392 161.304 201.68C161.544 201.872 161.76 202.064 161.952 202.256C162.192 202.4 162.456 202.472 162.744 202.472C163.464 202.472 164.112 201.848 164.688 200.6C165.312 199.304 165.84 197.648 166.271 195.632C166.704 193.616 167.04 191.48 167.28 189.224C167.52 186.968 167.64 184.88 167.64 182.96C167.64 181.568 167.304 180.68 166.632 180.296C165.96 179.912 164.928 179.624 163.536 179.432C163.344 179.384 163.08 179.24 162.744 179C162.456 178.712 162.312 178.4 162.312 178.064C162.312 177.776 162.528 177.536 162.96 177.344C163.44 177.104 163.752 176.984 163.896 176.984C164.808 176.984 165.48 177.032 165.912 177.128C166.344 177.176 166.968 177.2 167.784 177.2H182.832C183.792 177.2 184.488 177.176 184.92 177.128C185.4 177.032 186.096 176.984 187.008 176.984C187.152 176.984 187.44 177.104 187.872 177.344C188.352 177.536 188.592 177.776 188.592 178.064C188.592 178.4 188.448 178.712 188.16 179C187.872 179.24 187.608 179.384 187.368 179.432C186.168 179.672 185.304 180.08 184.776 180.656C184.296 181.184 184.056 182.432 184.056 184.4V201.536C184.056 202.496 184.296 203.144 184.776 203.48C185.304 203.768 185.928 204.032 186.648 204.272C187.032 204.416 187.392 204.584 187.728 204.776C188.112 204.92 188.304 205.184 188.304 205.568C188.304 205.856 188.136 206.024 187.8 206.072C187.464 206.168 187.152 206.216 186.864 206.216C185.952 206.216 185.232 206.168 184.704 206.072C184.224 206.024 183.768 205.976 183.336 205.928C182.904 205.88 182.256 205.856 181.392 205.856C180.576 205.856 179.928 205.88 179.448 205.928C178.968 205.976 178.464 206.024 177.936 206.072C177.456 206.168 176.76 206.216 175.848 206.216C175.56 206.216 175.248 206.168 174.912 206.072C174.576 206.024 174.408 205.856 174.408 205.568C174.408 205.184 174.576 204.92 174.912 204.776C175.296 204.584 175.68 204.416 176.064 204.272C176.784 204.032 177.456 203.768 178.08 203.48C178.704 203.144 179.016 202.496 179.016 201.536V182.24C179.016 181.856 178.968 181.304 178.872 180.584C178.776 179.864 178.44 179.504 177.864 179.504H171.456C170.832 179.504 170.472 179.864 170.376 180.584C170.28 181.304 170.232 181.856 170.232 182.24C170.232 184.256 170.112 186.392 169.872 188.648C169.68 190.904 169.344 193.136 168.864 195.344C168.432 197.504 167.856 199.472 167.136 201.248C166.416 202.976 165.552 204.368 164.544 205.424C163.536 206.48 162.384 207.008 161.088 207.008ZM193.592 206.216C193.352 206.216 193.04 206.168 192.656 206.072C192.32 206.024 192.152 205.856 192.152 205.568C192.152 205.184 192.32 204.92 192.656 204.776C193.04 204.584 193.424 204.416 193.808 204.272C194.528 204.032 195.2 203.768 195.824 203.48C196.496 203.144 196.832 202.472 196.832 201.464V181.736C196.832 180.776 196.544 180.128 195.968 179.792C195.44 179.408 194.816 179.12 194.096 178.928C193.712 178.784 193.328 178.616 192.944 178.424C192.608 178.232 192.44 177.968 192.44 177.632C192.44 177.344 192.608 177.176 192.944 177.128C193.328 177.032 193.64 176.984 193.88 176.984C194.84 176.984 195.56 177.008 196.04 177.056C196.568 177.104 197.048 177.176 197.48 177.272C197.96 177.32 198.608 177.344 199.424 177.344C200.288 177.344 200.912 177.32 201.296 177.272C201.728 177.176 202.184 177.104 202.664 177.056C203.144 177.008 203.864 176.984 204.824 176.984C205.064 176.984 205.352 177.032 205.688 177.128C206.072 177.176 206.264 177.344 206.264 177.632C206.264 177.968 206.072 178.232 205.688 178.424C205.352 178.616 204.992 178.784 204.608 178.928C203.888 179.12 203.24 179.408 202.664 179.792C202.136 180.128 201.872 180.776 201.872 181.736V196.136C201.872 196.328 201.968 196.472 202.16 196.568C202.4 196.616 202.544 196.616 202.592 196.568L216.344 182.384C216.44 182.192 216.512 182.072 216.56 182.024C216.656 181.976 216.704 181.832 216.704 181.592C216.704 180.632 216.464 180.008 215.984 179.72C215.504 179.384 214.904 179.12 214.184 178.928C213.8 178.784 213.416 178.616 213.032 178.424C212.696 178.232 212.528 177.968 212.528 177.632C212.528 177.344 212.696 177.176 213.032 177.128C213.368 177.032 213.68 176.984 213.968 176.984C214.928 176.984 215.648 177.008 216.128 177.056C216.608 177.104 217.064 177.176 217.496 177.272C217.928 177.32 218.552 177.344 219.368 177.344C220.232 177.344 220.88 177.32 221.312 177.272C221.744 177.176 222.2 177.104 222.68 177.056C223.208 177.008 223.952 176.984 224.912 176.984C225.2 176.984 225.512 177.032 225.848 177.128C226.184 177.176 226.352 177.344 226.352 177.632C226.352 177.968 226.16 178.232 225.776 178.424C225.44 178.616 225.08 178.784 224.696 178.928C223.976 179.12 223.304 179.408 222.68 179.792C222.056 180.128 221.744 180.776 221.744 181.736V201.464C221.744 202.424 222.08 203.072 222.752 203.408C223.472 203.744 224.192 204.032 224.912 204.272C225.296 204.416 225.656 204.584 225.992 204.776C226.376 204.92 226.568 205.184 226.568 205.568C226.568 205.856 226.376 206.024 225.992 206.072C225.656 206.168 225.368 206.216 225.128 206.216C224.168 206.216 223.4 206.168 222.824 206.072C222.296 206.024 221.792 205.976 221.312 205.928C220.832 205.88 220.16 205.856 219.296 205.856C218.48 205.856 217.808 205.88 217.28 205.928C216.8 205.976 216.272 206.024 215.696 206.072C215.168 206.168 214.424 206.216 213.464 206.216C213.224 206.216 212.912 206.168 212.528 206.072C212.192 206.024 212.024 205.856 212.024 205.568C212.024 205.184 212.192 204.92 212.528 204.776C212.912 204.584 213.296 204.416 213.68 204.272C214.4 204.032 215.072 203.744 215.696 203.408C216.368 203.072 216.704 202.424 216.704 201.464V186.128C216.704 185.936 216.68 185.816 216.632 185.768C216.584 185.672 216.512 185.672 216.416 185.768L202.088 200.672C201.944 200.816 201.872 201.08 201.872 201.464C201.872 202.472 202.208 203.144 202.88 203.48C203.6 203.768 204.32 204.032 205.04 204.272C205.424 204.416 205.784 204.584 206.12 204.776C206.504 204.92 206.696 205.184 206.696 205.568C206.696 205.856 206.504 206.024 206.12 206.072C205.784 206.168 205.496 206.216 205.256 206.216C204.296 206.216 203.528 206.168 202.952 206.072C202.424 206.024 201.92 205.976 201.44 205.928C200.96 205.88 200.288 205.856 199.424 205.856C198.608 205.856 197.936 205.88 197.408 205.928C196.928 205.976 196.4 206.024 195.824 206.072C195.296 206.168 194.552 206.216 193.592 206.216ZM243.727 207.08C241.327 207.08 239.143 206.48 237.175 205.28C235.255 204.032 233.719 202.352 232.567 200.24C231.463 198.08 230.911 195.68 230.911 193.04C230.911 189.92 231.583 187.088 232.927 184.544C234.319 182 236.167 179.984 238.471 178.496C240.775 176.96 243.319 176.192 246.103 176.192C249.223 176.192 251.959 177.032 254.311 178.712C254.887 179.144 255.175 179.6 255.175 180.08C255.175 180.464 255.007 180.896 254.671 181.376C254.335 181.856 253.927 182.264 253.447 182.6C252.967 182.888 252.511 183.032 252.079 183.032C251.839 183.032 251.599 182.96 251.359 182.816C251.119 182.624 250.855 182.432 250.567 182.24C249.511 181.424 248.335 180.656 247.039 179.936C245.743 179.216 244.663 178.856 243.799 178.856C241.447 178.856 239.527 179.96 238.039 182.168C236.599 184.328 235.879 187.184 235.879 190.736C235.879 192.992 236.359 195.032 237.319 196.856C238.327 198.68 239.647 200.12 241.279 201.176C242.959 202.232 244.807 202.76 246.823 202.76C248.215 202.76 249.415 202.544 250.423 202.112C251.431 201.632 252.511 200.816 253.663 199.664C253.759 199.568 253.879 199.496 254.023 199.448C254.167 199.352 254.287 199.304 254.383 199.304C254.911 199.304 255.175 199.64 255.175 200.312C255.175 200.6 255.079 200.936 254.887 201.32C254.743 201.656 254.479 202.064 254.095 202.544C253.327 203.504 252.415 204.344 251.359 205.064C250.303 205.736 249.127 206.24 247.831 206.576C246.583 206.912 245.215 207.08 243.727 207.08ZM266.711 206.216C266.471 206.216 266.135 206.168 265.703 206.072C265.271 206.024 265.055 205.856 265.055 205.568C265.055 205.184 265.223 204.92 265.559 204.776C265.943 204.584 266.327 204.416 266.711 204.272C267.431 204.032 268.103 203.744 268.727 203.408C269.399 203.072 269.735 202.376 269.735 201.32V181.808C269.735 181.376 269.687 180.896 269.591 180.368C269.495 179.792 269.255 179.504 268.871 179.504H264.551C263.831 179.504 263.255 179.648 262.823 179.936C262.391 180.224 262.007 180.68 261.671 181.304C261.383 181.88 261.095 182.696 260.807 183.752C260.711 184.136 260.495 184.544 260.159 184.976C259.871 185.36 259.535 185.552 259.151 185.552C258.959 185.552 258.791 185.456 258.647 185.264C258.503 185.072 258.431 184.808 258.431 184.472C258.431 184.376 258.431 184.256 258.431 184.112C258.479 183.968 258.527 183.824 258.575 183.68C258.767 183.008 258.959 182.048 259.151 180.8C259.343 179.504 259.439 178.4 259.439 177.488C259.439 177.104 259.511 176.792 259.655 176.552C259.847 176.312 260.135 176.192 260.519 176.192C260.903 176.192 261.239 176.24 261.527 176.336C261.815 176.432 262.247 176.552 262.823 176.696C263.351 176.84 263.855 176.96 264.335 177.056C264.863 177.152 265.559 177.2 266.423 177.2H281.255C281.879 177.2 282.503 177.176 283.127 177.128C283.751 177.08 284.159 176.984 284.351 176.84C284.591 176.648 284.855 176.504 285.143 176.408C285.431 176.264 285.623 176.192 285.719 176.192C285.863 176.192 286.031 176.288 286.223 176.48C286.415 176.672 286.511 176.936 286.511 177.272C286.511 177.752 286.463 178.28 286.367 178.856C286.271 179.432 286.223 180.032 286.223 180.656C286.223 181.232 286.223 181.808 286.223 182.384C286.271 182.912 286.319 183.44 286.367 183.968C286.415 184.304 286.343 184.664 286.151 185.048C286.007 185.384 285.767 185.552 285.431 185.552C285.095 185.552 284.807 185.336 284.567 184.904C284.375 184.424 284.255 184.04 284.207 183.752C284.159 182.888 283.991 182.144 283.703 181.52C283.415 180.848 282.983 180.344 282.407 180.008C281.831 179.672 281.087 179.504 280.175 179.504H275.855C275.375 179.504 275.063 179.768 274.919 180.296C274.823 180.824 274.775 181.328 274.775 181.808V201.392C274.775 202.4 275.111 203.072 275.783 203.408C276.503 203.744 277.223 204.032 277.943 204.272C278.327 204.416 278.687 204.584 279.023 204.776C279.407 204.92 279.599 205.184 279.599 205.568C279.599 205.856 279.383 206.024 278.951 206.072C278.519 206.168 278.183 206.216 277.943 206.216C277.031 206.216 276.311 206.168 275.783 206.072C275.255 206.024 274.751 205.976 274.271 205.928C273.839 205.88 273.191 205.856 272.327 205.856C271.511 205.856 270.863 205.88 270.383 205.928C269.903 205.976 269.399 206.024 268.871 206.072C268.391 206.168 267.671 206.216 266.711 206.216ZM295.666 207.008C294.802 207.008 293.914 206.672 293.002 206C292.138 205.328 291.394 204.512 290.77 203.552C290.194 202.592 289.906 201.68 289.906 200.816C289.906 199.28 290.314 198.08 291.13 197.216C291.946 196.352 293.242 195.56 295.018 194.84L302.362 191.816C303.322 191.432 303.874 191.096 304.018 190.808C304.21 190.52 304.33 189.896 304.378 188.936L304.522 184.328C304.57 183.08 304.21 182 303.442 181.088C302.722 180.176 301.666 179.72 300.274 179.72C299.554 179.72 298.834 179.84 298.114 180.08C297.394 180.32 296.794 180.632 296.314 181.016C296.026 181.208 295.834 181.496 295.738 181.88C295.642 182.264 295.594 182.672 295.594 183.104C295.594 183.296 295.594 183.512 295.594 183.752C295.642 183.992 295.666 184.208 295.666 184.4C295.666 184.64 295.354 184.976 294.73 185.408C294.154 185.792 293.482 186.152 292.714 186.488C291.994 186.776 291.394 186.92 290.914 186.92C290.674 186.92 290.482 186.872 290.338 186.776C290.194 186.632 290.122 186.464 290.122 186.272C290.122 185.504 290.362 184.688 290.842 183.824C291.37 182.912 292.09 182.072 293.002 181.304C294.106 180.296 295.306 179.408 296.602 178.64C297.898 177.872 299.17 177.272 300.418 176.84C301.666 176.408 302.77 176.192 303.73 176.192C305.458 176.192 306.874 176.816 307.978 178.064C309.13 179.264 309.682 180.776 309.634 182.6L309.274 199.88C309.226 200.888 309.442 201.704 309.922 202.328C310.45 202.952 311.098 203.264 311.866 203.264C313.066 203.264 313.954 203 314.53 202.472C314.77 202.232 314.962 202.112 315.106 202.112C315.346 202.112 315.538 202.184 315.682 202.328C315.826 202.472 315.898 202.664 315.898 202.904C315.898 203.432 315.634 203.96 315.106 204.488C314.338 205.256 313.498 205.856 312.586 206.288C311.722 206.768 310.906 207.008 310.138 207.008C307.93 207.008 306.178 205.76 304.882 203.264H304.666C303.082 204.56 301.57 205.496 300.13 206.072C298.69 206.696 297.202 207.008 295.666 207.008ZM299.05 203.552C300.01 203.552 300.826 203.408 301.498 203.12C302.17 202.784 302.77 202.352 303.298 201.824C303.538 201.584 303.73 201.272 303.874 200.888C304.066 200.456 304.186 199.784 304.234 198.872L304.378 195.344C304.426 194.816 304.402 194.432 304.306 194.192C304.21 193.952 304.018 193.832 303.73 193.832C303.634 193.832 303.466 193.856 303.226 193.904C302.986 193.952 302.674 194.048 302.29 194.192C299.746 195.104 297.97 196.064 296.962 197.072C296.002 198.032 295.522 198.92 295.522 199.736C295.522 200.984 295.882 201.944 296.602 202.616C297.37 203.24 298.186 203.552 299.05 203.552Z" fill="white"/>
<path d="M64.755 134.216C64.467 134.216 64.107 134.192 63.675 134.144C63.291 134.096 63.099 133.904 63.099 133.568C63.099 133.184 63.267 132.92 63.603 132.776C63.987 132.584 64.371 132.416 64.755 132.272C65.475 132.032 66.147 131.744 66.771 131.408C67.443 131.072 67.779 130.424 67.779 129.464V121.616C67.779 121.232 67.731 120.968 67.635 120.824C67.539 120.632 67.395 120.584 67.203 120.68C66.243 121.208 64.995 121.616 63.459 121.904C61.923 122.192 60.459 122.336 59.067 122.336C57.723 122.336 56.451 122.096 55.251 121.616C54.051 121.136 53.067 120.44 52.299 119.528C51.531 118.616 51.123 117.512 51.075 116.216L51.003 109.736C51.003 108.776 50.883 108.128 50.643 107.792C50.403 107.456 49.923 107.192 49.203 107C48.819 106.856 48.435 106.688 48.051 106.496C47.715 106.256 47.547 105.968 47.547 105.632C47.547 105.296 47.739 105.104 48.123 105.056C48.555 105.008 48.915 104.984 49.203 104.984C49.923 104.984 50.451 105.008 50.787 105.056C51.123 105.104 51.483 105.176 51.867 105.272C52.251 105.32 52.851 105.344 53.667 105.344C54.531 105.344 55.179 105.32 55.611 105.272C56.091 105.176 56.523 105.104 56.907 105.056C57.339 105.008 57.915 104.984 58.635 104.984C58.971 104.984 59.331 105.008 59.715 105.056C60.099 105.104 60.291 105.296 60.291 105.632C60.291 105.968 60.099 106.232 59.715 106.424C59.379 106.616 59.019 106.784 58.635 106.928C57.915 107.12 57.291 107.408 56.763 107.792C56.283 108.128 56.043 108.776 56.043 109.736V114.92C56.043 116.264 56.427 117.44 57.195 118.448C57.963 119.456 59.163 119.96 60.795 119.96C61.899 119.96 62.979 119.888 64.035 119.744C65.139 119.6 66.051 119.24 66.771 118.664C67.155 118.376 67.419 118.112 67.563 117.872C67.707 117.584 67.779 117.344 67.779 117.152V109.736C67.779 108.776 67.539 108.128 67.059 107.792C66.579 107.408 65.979 107.12 65.259 106.928C64.875 106.784 64.491 106.616 64.107 106.424C63.771 106.232 63.603 105.968 63.603 105.632C63.603 105.296 63.795 105.104 64.179 105.056C64.563 105.008 64.923 104.984 65.259 104.984C66.219 104.984 66.915 105.008 67.347 105.056C67.779 105.104 68.187 105.176 68.571 105.272C69.003 105.32 69.627 105.344 70.443 105.344C71.307 105.344 71.931 105.32 72.315 105.272C72.747 105.176 73.203 105.104 73.683 105.056C74.163 105.008 74.859 104.984 75.771 104.984C76.107 104.984 76.467 105.008 76.851 105.056C77.235 105.104 77.427 105.296 77.427 105.632C77.427 105.968 77.235 106.232 76.851 106.424C76.515 106.616 76.155 106.784 75.771 106.928C75.051 107.12 74.379 107.408 73.755 107.792C73.131 108.128 72.819 108.776 72.819 109.736V129.464C72.819 130.424 73.155 131.072 73.827 131.408C74.547 131.744 75.267 132.032 75.987 132.272C76.371 132.416 76.731 132.584 77.067 132.776C77.451 132.92 77.643 133.184 77.643 133.568C77.643 133.904 77.427 134.096 76.995 134.144C76.611 134.192 76.275 134.216 75.987 134.216C75.075 134.216 74.355 134.168 73.827 134.072C73.299 134.024 72.795 133.976 72.315 133.928C71.883 133.88 71.235 133.856 70.371 133.856C69.555 133.856 68.907 133.88 68.427 133.928C67.947 133.976 67.443 134.024 66.915 134.072C66.435 134.168 65.715 134.216 64.755 134.216ZM82.5564 134.216C82.3164 134.216 82.0044 134.168 81.6204 134.072C81.2844 134.024 81.1164 133.856 81.1164 133.568C81.1164 133.184 81.2844 132.92 81.6204 132.776C82.0044 132.584 82.3884 132.416 82.7724 132.272C83.4924 132.032 84.1644 131.768 84.7884 131.48C85.4604 131.144 85.7964 130.472 85.7964 129.464V109.736C85.7964 108.776 85.5084 108.128 84.9324 107.792C84.4044 107.408 83.7804 107.12 83.0604 106.928C82.6764 106.784 82.2924 106.616 81.9084 106.424C81.5724 106.232 81.4044 105.968 81.4044 105.632C81.4044 105.344 81.5724 105.176 81.9084 105.128C82.2924 105.032 82.6044 104.984 82.8444 104.984C83.8044 104.984 84.5244 105.008 85.0044 105.056C85.5324 105.104 86.0124 105.176 86.4444 105.272C86.9244 105.32 87.5724 105.344 88.3884 105.344C89.2524 105.344 89.8764 105.32 90.2604 105.272C90.6924 105.176 91.1484 105.104 91.6284 105.056C92.1084 105.008 92.8284 104.984 93.7884 104.984C94.0284 104.984 94.3164 105.032 94.6524 105.128C95.0364 105.176 95.2284 105.344 95.2284 105.632C95.2284 105.968 95.0364 106.232 94.6524 106.424C94.3164 106.616 93.9564 106.784 93.5724 106.928C92.8524 107.12 92.2044 107.408 91.6284 107.792C91.1004 108.128 90.8364 108.776 90.8364 109.736V124.136C90.8364 124.328 90.9324 124.472 91.1244 124.568C91.3644 124.616 91.5084 124.616 91.5564 124.568L105.308 110.384C105.404 110.192 105.476 110.072 105.524 110.024C105.62 109.976 105.668 109.832 105.668 109.592C105.668 108.632 105.428 108.008 104.948 107.72C104.468 107.384 103.868 107.12 103.148 106.928C102.764 106.784 102.38 106.616 101.996 106.424C101.66 106.232 101.492 105.968 101.492 105.632C101.492 105.344 101.66 105.176 101.996 105.128C102.332 105.032 102.644 104.984 102.932 104.984C103.892 104.984 104.612 105.008 105.092 105.056C105.572 105.104 106.028 105.176 106.46 105.272C106.892 105.32 107.516 105.344 108.332 105.344C109.196 105.344 109.844 105.32 110.276 105.272C110.708 105.176 111.164 105.104 111.644 105.056C112.172 105.008 112.916 104.984 113.876 104.984C114.164 104.984 114.476 105.032 114.812 105.128C115.148 105.176 115.316 105.344 115.316 105.632C115.316 105.968 115.124 106.232 114.74 106.424C114.404 106.616 114.044 106.784 113.66 106.928C112.94 107.12 112.268 107.408 111.644 107.792C111.02 108.128 110.708 108.776 110.708 109.736V129.464C110.708 130.424 111.044 131.072 111.716 131.408C112.436 131.744 113.156 132.032 113.876 132.272C114.26 132.416 114.62 132.584 114.956 132.776C115.34 132.92 115.532 133.184 115.532 133.568C115.532 133.856 115.34 134.024 114.956 134.072C114.62 134.168 114.332 134.216 114.092 134.216C113.132 134.216 112.364 134.168 111.788 134.072C111.26 134.024 110.756 133.976 110.276 133.928C109.796 133.88 109.124 133.856 108.26 133.856C107.444 133.856 106.772 133.88 106.244 133.928C105.764 133.976 105.236 134.024 104.66 134.072C104.132 134.168 103.388 134.216 102.428 134.216C102.188 134.216 101.876 134.168 101.492 134.072C101.156 134.024 100.988 133.856 100.988 133.568C100.988 133.184 101.156 132.92 101.492 132.776C101.876 132.584 102.26 132.416 102.644 132.272C103.364 132.032 104.036 131.744 104.66 131.408C105.332 131.072 105.668 130.424 105.668 129.464V114.128C105.668 113.936 105.644 113.816 105.596 113.768C105.548 113.672 105.476 113.672 105.38 113.768L91.0524 128.672C90.9084 128.816 90.8364 129.08 90.8364 129.464C90.8364 130.472 91.1724 131.144 91.8444 131.48C92.5644 131.768 93.2844 132.032 94.0044 132.272C94.3884 132.416 94.7484 132.584 95.0844 132.776C95.4684 132.92 95.6604 133.184 95.6604 133.568C95.6604 133.856 95.4684 134.024 95.0844 134.072C94.7484 134.168 94.4604 134.216 94.2204 134.216C93.2604 134.216 92.4924 134.168 91.9164 134.072C91.3884 134.024 90.8844 133.976 90.4044 133.928C89.9244 133.88 89.2524 133.856 88.3884 133.856C87.5724 133.856 86.9004 133.88 86.3724 133.928C85.8924 133.976 85.3644 134.024 84.7884 134.072C84.2604 134.168 83.5164 134.216 82.5564 134.216ZM132.691 135.08C130.291 135.08 128.107 134.48 126.139 133.28C124.219 132.032 122.683 130.352 121.531 128.24C120.427 126.08 119.875 123.68 119.875 121.04C119.875 117.92 120.547 115.088 121.891 112.544C123.283 110 125.131 107.984 127.435 106.496C129.739 104.96 132.283 104.192 135.067 104.192C138.187 104.192 140.923 105.032 143.275 106.712C143.851 107.144 144.139 107.6 144.139 108.08C144.139 108.464 143.971 108.896 143.635 109.376C143.299 109.856 142.891 110.264 142.411 110.6C141.931 110.888 141.475 111.032 141.043 111.032C140.803 111.032 140.563 110.96 140.323 110.816C140.083 110.624 139.819 110.432 139.531 110.24C138.475 109.424 137.299 108.656 136.003 107.936C134.707 107.216 133.627 106.856 132.763 106.856C130.411 106.856 128.491 107.96 127.003 110.168C125.563 112.328 124.843 115.184 124.843 118.736C124.843 120.992 125.323 123.032 126.283 124.856C127.291 126.68 128.611 128.12 130.243 129.176C131.923 130.232 133.771 130.76 135.787 130.76C137.179 130.76 138.379 130.544 139.387 130.112C140.395 129.632 141.475 128.816 142.627 127.664C142.723 127.568 142.843 127.496 142.987 127.448C143.131 127.352 143.251 127.304 143.347 127.304C143.875 127.304 144.139 127.64 144.139 128.312C144.139 128.6 144.043 128.936 143.851 129.32C143.707 129.656 143.443 130.064 143.059 130.544C142.291 131.504 141.379 132.344 140.323 133.064C139.267 133.736 138.091 134.24 136.795 134.576C135.547 134.912 134.179 135.08 132.691 135.08ZM155.676 134.216C155.436 134.216 155.1 134.168 154.668 134.072C154.236 134.024 154.02 133.856 154.02 133.568C154.02 133.184 154.188 132.92 154.524 132.776C154.908 132.584 155.292 132.416 155.676 132.272C156.396 132.032 157.068 131.744 157.692 131.408C158.364 131.072 158.7 130.376 158.7 129.32V109.808C158.7 109.376 158.652 108.896 158.556 108.368C158.46 107.792 158.22 107.504 157.836 107.504H153.516C152.796 107.504 152.22 107.648 151.788 107.936C151.356 108.224 150.972 108.68 150.636 109.304C150.348 109.88 150.06 110.696 149.772 111.752C149.676 112.136 149.46 112.544 149.124 112.976C148.836 113.36 148.5 113.552 148.116 113.552C147.924 113.552 147.756 113.456 147.612 113.264C147.468 113.072 147.396 112.808 147.396 112.472C147.396 112.376 147.396 112.256 147.396 112.112C147.444 111.968 147.492 111.824 147.54 111.68C147.732 111.008 147.924 110.048 148.116 108.8C148.308 107.504 148.404 106.4 148.404 105.488C148.404 105.104 148.476 104.792 148.62 104.552C148.812 104.312 149.1 104.192 149.484 104.192C149.868 104.192 150.204 104.24 150.492 104.336C150.78 104.432 151.212 104.552 151.788 104.696C152.316 104.84 152.82 104.96 153.3 105.056C153.828 105.152 154.524 105.2 155.388 105.2H170.22C170.844 105.2 171.468 105.176 172.092 105.128C172.716 105.08 173.124 104.984 173.316 104.84C173.556 104.648 173.82 104.504 174.108 104.408C174.396 104.264 174.588 104.192 174.684 104.192C174.828 104.192 174.996 104.288 175.188 104.48C175.38 104.672 175.476 104.936 175.476 105.272C175.476 105.752 175.428 106.28 175.332 106.856C175.236 107.432 175.188 108.032 175.188 108.656C175.188 109.232 175.188 109.808 175.188 110.384C175.236 110.912 175.284 111.44 175.332 111.968C175.38 112.304 175.308 112.664 175.116 113.048C174.972 113.384 174.732 113.552 174.396 113.552C174.06 113.552 173.772 113.336 173.532 112.904C173.34 112.424 173.22 112.04 173.172 111.752C173.124 110.888 172.956 110.144 172.668 109.52C172.38 108.848 171.948 108.344 171.372 108.008C170.796 107.672 170.052 107.504 169.14 107.504H164.82C164.34 107.504 164.028 107.768 163.884 108.296C163.788 108.824 163.74 109.328 163.74 109.808V129.392C163.74 130.4 164.076 131.072 164.748 131.408C165.468 131.744 166.188 132.032 166.908 132.272C167.292 132.416 167.652 132.584 167.988 132.776C168.372 132.92 168.564 133.184 168.564 133.568C168.564 133.856 168.348 134.024 167.916 134.072C167.484 134.168 167.148 134.216 166.908 134.216C165.996 134.216 165.276 134.168 164.748 134.072C164.22 134.024 163.716 133.976 163.236 133.928C162.804 133.88 162.156 133.856 161.292 133.856C160.476 133.856 159.828 133.88 159.348 133.928C158.868 133.976 158.364 134.024 157.836 134.072C157.356 134.168 156.636 134.216 155.676 134.216ZM193.055 135.008C190.367 135.008 187.943 134.384 185.783 133.136C183.623 131.888 181.895 130.184 180.599 128.024C179.351 125.816 178.727 123.32 178.727 120.536C178.727 118.52 179.111 116.552 179.879 114.632C180.695 112.712 181.823 110.96 183.263 109.376C184.703 107.792 186.383 106.544 188.303 105.632C190.223 104.672 192.287 104.192 194.495 104.192C197.279 104.192 199.775 104.864 201.983 106.208C204.239 107.552 206.015 109.328 207.311 111.536C208.655 113.696 209.327 116.072 209.327 118.664C209.327 121.448 208.703 124.088 207.455 126.584C206.255 129.08 204.455 131.12 202.055 132.704C199.655 134.24 196.655 135.008 193.055 135.008ZM194.567 132.848C196.199 132.848 197.663 132.536 198.959 131.912C200.255 131.288 201.263 130.28 201.983 128.888C202.559 127.784 202.943 126.44 203.135 124.856C203.327 123.272 203.423 121.784 203.423 120.392C203.423 118.088 202.991 115.88 202.127 113.768C201.311 111.608 200.135 109.856 198.599 108.512C197.111 107.12 195.335 106.424 193.271 106.424C191.975 106.424 190.799 106.64 189.743 107.072C188.735 107.456 187.799 108.2 186.935 109.304C185.975 110.504 185.351 111.968 185.063 113.696C184.775 115.424 184.631 117.152 184.631 118.88C184.631 121.232 185.063 123.488 185.927 125.648C186.791 127.76 187.967 129.488 189.455 130.832C190.943 132.176 192.647 132.848 194.567 132.848ZM215.239 134.216C214.999 134.216 214.687 134.168 214.303 134.072C213.967 134.024 213.799 133.856 213.799 133.568C213.799 133.184 213.967 132.92 214.303 132.776C214.687 132.584 215.071 132.416 215.455 132.272C216.175 132.032 216.823 131.768 217.399 131.48C218.023 131.144 218.335 130.496 218.335 129.536V112.4C218.335 111.008 218.071 109.856 217.543 108.944C217.063 107.984 216.223 107.384 215.023 107.144C214.831 107.096 214.567 106.976 214.231 106.784C213.943 106.544 213.799 106.256 213.799 105.92C213.799 105.632 214.015 105.416 214.447 105.272C214.927 105.08 215.239 104.984 215.383 104.984C216.295 104.984 217.015 105.032 217.543 105.128C218.071 105.176 218.743 105.2 219.559 105.2H231.583C232.975 105.2 233.983 105.152 234.607 105.056C235.231 104.912 235.711 104.84 236.047 104.84C236.095 104.84 236.191 104.912 236.335 105.056C236.527 105.152 236.623 105.32 236.623 105.56C236.623 106.184 236.575 107.072 236.479 108.224C236.383 109.376 236.335 110.336 236.335 111.104C236.335 111.728 236.287 112.376 236.191 113.048C236.095 113.72 235.831 114.056 235.399 114.056C234.919 114.056 234.463 113.144 234.031 111.32C233.887 110.648 233.623 110.024 233.239 109.448C232.903 108.872 232.495 108.416 232.015 108.08C231.535 107.696 231.031 107.504 230.503 107.504C230.167 107.504 229.663 107.504 228.991 107.504C228.319 107.456 227.647 107.432 226.975 107.432C226.351 107.432 225.895 107.432 225.607 107.432C224.647 107.432 224.023 107.792 223.735 108.512C223.495 109.232 223.375 109.784 223.375 110.168V129.536C223.375 130.496 223.735 131.144 224.455 131.48C225.223 131.768 225.967 132.032 226.687 132.272C227.071 132.416 227.431 132.584 227.767 132.776C228.151 132.92 228.343 133.184 228.343 133.568C228.343 133.904 228.127 134.096 227.695 134.144C227.311 134.192 226.975 134.216 226.687 134.216C225.775 134.216 225.055 134.168 224.527 134.072C223.999 134.024 223.495 133.976 223.015 133.928C222.583 133.88 221.935 133.856 221.071 133.856C220.255 133.856 219.583 133.88 219.055 133.928C218.575 133.976 218.047 134.024 217.471 134.072C216.943 134.168 216.199 134.216 215.239 134.216ZM254.157 135.008C251.469 135.008 249.045 134.384 246.885 133.136C244.725 131.888 242.997 130.184 241.701 128.024C240.453 125.816 239.829 123.32 239.829 120.536C239.829 118.52 240.213 116.552 240.981 114.632C241.797 112.712 242.925 110.96 244.365 109.376C245.805 107.792 247.485 106.544 249.405 105.632C251.325 104.672 253.389 104.192 255.597 104.192C258.381 104.192 260.877 104.864 263.085 106.208C265.341 107.552 267.117 109.328 268.413 111.536C269.757 113.696 270.429 116.072 270.429 118.664C270.429 121.448 269.805 124.088 268.557 126.584C267.357 129.08 265.557 131.12 263.157 132.704C260.757 134.24 257.757 135.008 254.157 135.008ZM255.669 132.848C257.301 132.848 258.765 132.536 260.061 131.912C261.357 131.288 262.365 130.28 263.085 128.888C263.661 127.784 264.045 126.44 264.237 124.856C264.429 123.272 264.525 121.784 264.525 120.392C264.525 118.088 264.093 115.88 263.229 113.768C262.413 111.608 261.237 109.856 259.701 108.512C258.213 107.12 256.437 106.424 254.373 106.424C253.077 106.424 251.901 106.64 250.845 107.072C249.837 107.456 248.901 108.2 248.037 109.304C247.077 110.504 246.453 111.968 246.165 113.696C245.877 115.424 245.733 117.152 245.733 118.88C245.733 121.232 246.165 123.488 247.029 125.648C247.893 127.76 249.069 129.488 250.557 130.832C252.045 132.176 253.749 132.848 255.669 132.848Z" fill="white"/>
<path d="M29.304 63.08C25.944 63.08 22.704 62.504 19.584 61.352C16.464 60.2 13.68 58.568 11.232 56.456C8.784 54.296 6.84 51.728 5.4 48.752C4.008 45.728 3.312 42.392 3.312 38.744C3.312 35.24 4.056 32 5.544 29.024C7.032 26.048 9.072 23.456 11.664 21.248C14.256 19.04 17.208 17.336 20.52 16.136C23.88 14.888 27.408 14.264 31.104 14.264C32.976 14.264 34.56 14.336 35.856 14.48C37.152 14.624 38.4 14.84 39.6 15.128C40.848 15.368 42.288 15.704 43.92 16.136C44.64 16.328 45.144 16.616 45.432 17C45.768 17.384 45.96 17.912 46.008 18.584C46.104 19.688 46.224 20.888 46.368 22.184C46.512 23.432 46.608 24.992 46.656 26.864C46.704 27.2 46.536 27.488 46.152 27.728C45.816 27.92 45.432 27.968 45 27.872C44.616 27.776 44.352 27.464 44.208 26.936C43.728 25.112 43.176 23.552 42.552 22.256C41.928 20.912 40.992 19.808 39.744 18.944C38.544 18.128 37.08 17.528 35.352 17.144C33.672 16.712 31.848 16.496 29.88 16.496C27.096 16.496 24.504 17.072 22.104 18.224C19.752 19.328 17.712 20.864 15.984 22.832C14.304 24.752 12.984 26.936 12.024 29.384C11.064 31.832 10.584 34.376 10.584 37.016C10.584 39.944 11.04 42.824 11.952 45.656C12.912 48.488 14.256 51.056 15.984 53.36C17.76 55.616 19.848 57.44 22.248 58.832C24.696 60.176 27.408 60.848 30.384 60.848C33.84 60.848 36.696 60.056 38.952 58.472C41.208 56.888 43.128 54.68 44.712 51.848C45.048 51.224 45.528 50.912 46.152 50.912C46.824 50.912 47.16 51.296 47.16 52.064C47.16 52.448 47.064 53.072 46.872 53.936C46.68 54.752 46.416 55.64 46.08 56.6C45.792 57.512 45.504 58.328 45.216 59.048C44.88 59.72 44.592 60.152 44.352 60.344C44.16 60.536 43.68 60.752 42.912 60.992C41.136 61.712 39 62.24 36.504 62.576C34.056 62.912 31.656 63.08 29.304 63.08Z" fill="white"/>
<defs>
<clipPath id="clip0_143_13927">
<rect width="339" height="198" fill="white" transform="translate(1 23)"/>
</clipPath>
</defs>
</svg>
